# xmcd CD database file
#
# Track frame offsets:
#	750
#	19389
#	36230
#	55532
#	76706
#	93833
#	115657
#	136474
#	155490
#	172317
#	192003
#	214775
#
# Disc length: 3173 seconds
#
# Revision: 0
# Processed by: cddbd v1.4PL0 Copyright (c) Steve Scherf et al.
# Submitted via: CDex 1.50
#
DISCID=970c5b0c
DTITLE=Frank Reyes - Dejame Entrar En Ti
DYEAR=2002
DGENRE=Salsa
TTITLE0=Nada de Nada
TTITLE1=A Quien Tu Quieres No Te Quiere
TTITLE2=No Te Olvides de Mi
TTITLE3=Vuelve Pronto
TTITLE4=Dejame Entrare En Ti
TTITLE5=Contigo O Sin Ti
TTITLE6=Que Te Vayas
TTITLE7=Adolecente
TTITLE8=Necesito Decirte
TTITLE9=Como Llora Mi Alma
TTITLE10=Maria Pica
TTITLE11=No Te Vayas
EXTD=YEAR: 2002
EXTT0=
EXTT1=
EXTT2=
EXTT3=
EXTT4=
EXTT5=
EXTT6=
EXTT7=
EXTT8=
EXTT9=
EXTT10=
EXTT11=
PLAYORDER=
